HIERARCHY
ROOT root
{
  OFFSET 0 93.2929 0
  CHANNELS 6 Xposition Yposition Zposition Zrotation Xrotation Yrotation
  JOINT torso_1
  {
    OFFSET 0 5.07867 -1.15138
    CHANNELS 6 Xposition Yposition Zposition Zrotation Xrotation Yrotation
    JOINT torso_2
    {
      OFFSET 0 5.61661 1.07143
      CHANNELS 6 Xposition Yposition Zposition Zrotation Xrotation Yrotation
      JOINT torso_3
      {
        OFFSET -1.02604e-17 5.98978 0.11501
        CHANNELS 6 Xposition Yposition Zposition Zrotation Xrotation Yrotation
        JOINT torso_4
        {
          OFFSET -1.10457e-17 6.50583 -0.443523
          CHANNELS 6 Xposition Yposition Zposition Zrotation Xrotation Yrotation
          JOINT torso_5
          {
            OFFSET -1.97295e-17 7.60548 -1.50593
            CHANNELS 6 Xposition Yposition Zposition Zrotation Xrotation Yrotation
            JOINT torso_6
            {
              OFFSET -2.53307e-17 9.49737 -0.914492
              CHANNELS 6 Xposition Yposition Zposition Zrotation Xrotation Yrotation
              JOINT torso_7
              {
                OFFSET -2.90401e-17 10.5513 1.57691
                CHANNELS 6 Xposition Yposition Zposition Zrotation Xrotation Yrotation
                JOINT neck_1
                {
                  OFFSET -1.29193e-17 4.78644 0.715339
                  CHANNELS 6 Xposition Yposition Zposition Zrotation Xrotation Yrotation
                  JOINT neck_2
                  {
                    OFFSET -1.8116e-17 4.82109 0.421791
                    CHANNELS 6 Xposition Yposition Zposition Zrotation Xrotation Yrotation
                    JOINT head
                    {
                      OFFSET -2.00958e-17 4.83041 0.765062
                      CHANNELS 6 Xposition Yposition Zposition Zrotation Xrotation Yrotation
                      End Site
                      {
                        OFFSET 0 0.1 0
                      }
                    }
                  }
                }
                JOINT l_shoulder
                {
                  OFFSET 1.23299 -7.60731 7.53374
                  CHANNELS 6 Xposition Yposition Zposition Zrotation Xrotation Yrotation
                  JOINT l_up_arm
                  {
                    OFFSET 12.9547 3.2495 -3.26872
                    CHANNELS 6 Xposition Yposition Zposition Zrotation Xrotation Yrotation
                    JOINT l_low_arm
                    {
                      OFFSET 29.2081 0.0598081 0.137039
                      CHANNELS 6 Xposition Yposition Zposition Zrotation Xrotation Yrotation
                      JOINT l_hand
                      {
                        OFFSET 24.234 0.0496219 0.113701
                        CHANNELS 6 Xposition Yposition Zposition Zrotation Xrotation Yrotation
                        End Site
                        {
                          OFFSET 0.1 0 0
                        }
                      }
                    }
                  }
                }
                JOINT r_shoulder
                {
                  OFFSET -1.23299 -7.60729 7.53365
                  CHANNELS 6 Xposition Yposition Zposition Zrotation Xrotation Yrotation
                  JOINT r_up_arm
                  {
                    OFFSET -12.9547 3.2495 -3.26872
                    CHANNELS 6 Xposition Yposition Zposition Zrotation Xrotation Yrotation
                    JOINT r_low_arm
                    {
                      OFFSET -29.2081 0.0598081 0.137039
                      CHANNELS 6 Xposition Yposition Zposition Zrotation Xrotation Yrotation
                      JOINT r_hand
                      {
                        OFFSET -24.234 0.0496218 0.113702
                        CHANNELS 6 Xposition Yposition Zposition Zrotation Xrotation Yrotation
                        End Site
                        {
                          OFFSET -0.1 0 0
                        }
                      }
                    }
                  }
                }
              }
            }
          }
        }
      }
    }
  }
  JOINT l_up_leg
  {
    OFFSET 9.23673 -4.20556 2.0327
    CHANNELS 6 Xposition Yposition Zposition Zrotation Xrotation Yrotation
    JOINT l_low_leg
    {
      OFFSET -0.852353 -38.7721 -0.655187
      CHANNELS 6 Xposition Yposition Zposition Zrotation Xrotation Yrotation
      JOINT l_foot
      {
        OFFSET -2.32622 -40.4017 -6.04875
        CHANNELS 6 Xposition Yposition Zposition Zrotation Xrotation Yrotation
        JOINT l_toes
        {
          OFFSET 0.779096 -9.8844 12.4959
          CHANNELS 6 Xposition Yposition Zposition Zrotation Xrotation Yrotation
          End Site
          {
            OFFSET 0 0 0.1
          }
        }
      }
    }
  }
  JOINT r_up_leg
  {
    OFFSET -9.23673 -4.20556 2.0327
    CHANNELS 6 Xposition Yposition Zposition Zrotation Xrotation Yrotation
    JOINT r_low_leg
    {
      OFFSET 0.852353 -38.7721 -0.655187
      CHANNELS 6 Xposition Yposition Zposition Zrotation Xrotation Yrotation
      JOINT r_foot
      {
        OFFSET 2.32622 -40.4017 -6.04875
        CHANNELS 6 Xposition Yposition Zposition Zrotation Xrotation Yrotation
        JOINT r_toes
        {
          OFFSET -0.779096 -9.8844 12.4959
          CHANNELS 6 Xposition Yposition Zposition Zrotation Xrotation Yrotation
          End Site
          {
            OFFSET 0 0 0.1
          }
        }
      }
    }
  }
}
MOTION
Frames: 8
Frame Time: 0.016667
0 93.2929 0 -0 0 -0 0 5.07867 -1.15138 -0 0 -0 0 5.61661 1.07143 -0 0 -0 -1.02604e-17 5.98978 0.11501 -0 0 -0 -1.10457e-17 6.50583 -0.443523 -0 0 -0 -1.97295e-17 7.60548 -1.50593 -0 0 -0 -2.53307e-17 9.49737 -0.914492 -0 0 -0 -2.90401e-17 10.5513 1.57691 -0 0 -0 -1.29193e-17 4.78644 0.715339 -0 0 -0 -1.8116e-17 4.82109 0.421791 -0 0 -0 -2.00958e-17 4.83041 0.765062 -0 0 -0 1.23299 -7.60731 7.53374 -0 0 -0 12.9547 3.2495 -3.26872 -0 0 -0 29.2081 0.0598081 0.137039 -0 0 -0 24.234 0.0496219 0.113701 -0 0 -0 -1.23299 -7.60729 7.53365 -0 0 -0 -12.9547 3.2495 -3.26872 -0 0 -0 -29.2081 0.0598081 0.137039 -0 0 -0 -24.234 0.0496218 0.113702 -0 0 -0 9.23673 -4.20556 2.0327 -0 0 -0 -0.852353 -38.7721 -0.655187 -0 0 -0 -2.32622 -40.4017 -6.04875 -0 0 -0 0.779096 -9.8844 12.4959 -0 0 -0 -9.23673 -4.20556 2.0327 -0 0 -0 0.852353 -38.7721 -0.655187 -0 0 -0 2.32622 -40.4017 -6.04875 -0 0 -0 -0.779096 -9.8844 12.4959 -0 0 -0 
-4.6302 91.6692 60.38 1.99308 0.282096 4.87703 0 5.07867 -1.15138 -1.22247 3.57036 0.0571921 0 5.61661 1.07143 -0.840258 3.07064 -0.108873 -1.02604e-17 5.98978 0.11501 -0.546288 2.96744 -0.0153149 -1.10457e-17 6.50583 -0.443523 -0.253322 2.60359 0.00439752 -1.97295e-17 7.60548 -1.50593 0.0717368 1.8301 -0.00874085 -2.53307e-17 9.49737 -0.914492 0.429861 1.48643 -0.336174 -2.90401e-17 10.5513 1.57691 -0.000693512 0.808324 0.0617322 -1.29193e-17 4.78644 0.715339 0.434648 6.66408 0.148089 -1.8116e-17 4.82109 0.421791 0.132943 0.155638 -0.0590562 -2.00958e-17 4.83041 0.765062 -3.07549 0.789784 1.67115 1.23299 -7.60731 7.53374 0.657941 2.92993 -1.34258 12.9547 3.2495 -3.26872 -79.2682 24.8715 -10.5113 29.2081 0.0598081 0.137039 3.0029 -0.369517 -14.6188 24.234 0.0496219 0.113701 0.322784 -25.6304 -4.95332 -1.23299 -7.60729 7.53365 1.35542 3.69046 1.73762 -12.9547 3.2495 -3.26872 76.4585 17.0786 6.99497 -29.2081 0.0598081 0.137039 -2.63734 -0.282164 12.808 -24.234 0.0496218 0.113702 0.15731 -10.3353 4.68715 9.23673 -4.20556 2.0327 -0.852339 -16.9826 -10.5665 -0.852353 -38.7721 -0.655187 -6.07361 21.8114 0.785191 -2.32622 -40.4017 -6.04875 -0.150719 -2.14414 15.2981 0.779096 -9.8844 12.4959 6.0642e-16 -7.67877e-16 -1.48371e-17 -9.23673 -4.20556 2.0327 -6.20271 -2.74887 11.6151 0.852353 -38.7721 -0.655187 4.03251 14.8322 -0.264585 2.32622 -40.4017 -6.04875 -1.60459 -9.59446 -15.8093 -0.779096 -9.8844 12.4959 -5.96354e-16 -5.59082e-16 -1.27471e-14 
-5.00684 91.4671 60.1455 1.7972 -0.216832 5.14167 0 5.07867 -1.15138 -1.10807 3.98993 0.0445971 0 5.61661 1.07143 -0.740309 3.39196 -0.107588 -1.02604e-17 5.98978 0.11501 -0.463069 3.19793 -0.0113889 -1.10457e-17 6.50583 -0.443523 -0.186062 2.70549 0.012388 -1.97295e-17 7.60548 -1.50593 0.124531 1.83828 -0.00956304 -2.53307e-17 9.49737 -0.914492 0.460949 1.45391 -0.343245 -2.90401e-17 10.5513 1.57691 -0.0018696 0.816784 0.069087 -1.29193e-17 4.78644 0.715339 0.464232 6.52153 -0.237445 -1.8116e-17 4.82109 0.421791 0.380332 0.0173741 -0.228196 -2.00958e-17 4.83041 0.765062 -2.88109 0.599652 1.70877 1.23299 -7.60731 7.53374 0.676027 3.01547 -1.47331 12.9547 3.2495 -3.26872 -79.0095 25.2349 -11.287 29.2081 0.0598081 0.137039 3.08003 -0.389481 -15.0023 24.234 0.0496219 0.113701 0.470377 -25.8223 -4.77848 -1.23299 -7.60729 7.53365 1.36334 3.77393 1.88784 -12.9547 3.2495 -3.26872 75.7011 17.5327 7.77915 -29.2081 0.0598081 0.137039 -2.73547 -0.304375 13.2925 -24.234 0.0496218 0.113702 0.345498 -11.5509 4.75193 9.23673 -4.20556 2.0327 -0.291276 -17.9506 -10.5592 -0.852353 -38.7721 -0.655187 -6.72588 23.922 1.0017 -2.32622 -40.4017 -6.04875 -0.429439 -2.22543 15.3692 0.779096 -9.8844 12.4959 -7.81106e-17 -7.99965e-16 1.72502e-17 -9.23673 -4.20556 2.0327 -5.82394 -3.27582 11.962 0.852353 -38.7721 -0.655187 4.48736 16.4319 -0.359196 2.32622 -40.4017 -6.04875 -1.71742 -10.0767 -15.851 -0.779096 -9.8844 12.4959 -5.96354e-16 -5.59082e-16 -1.27471e-14 
-5.35967 91.3099 59.9913 1.93467 -0.615724 5.2845 0 5.07867 -1.15138 -1.12819 4.2271 0.070883 0 5.61661 1.07143 -0.7568 3.59427 -0.0835503 -1.02604e-17 5.98978 0.11501 -0.471759 3.38072 0.0146711 -1.10457e-17 6.50583 -0.443523 -0.186647 2.86679 0.0421745 -1.97295e-17 7.60548 -1.50593 0.140523 1.97162 0.0222698 -2.53307e-17 9.49737 -0.914492 0.494844 1.59208 -0.319618 -2.90401e-17 10.5513 1.57691 -0.00182759 0.809583 0.0745243 -1.29193e-17 4.78644 0.715339 0.478175 6.45798 -0.646456 -1.8116e-17 4.82109 0.421791 0.656737 -0.0339641 -0.411915 -2.00958e-17 4.83041 0.765062 -2.56837 0.433296 1.66901 1.23299 -7.60731 7.53374 0.720527 2.99988 -1.53998 12.9547 3.2495 -3.26872 -78.7381 25.4659 -12.1107 29.2081 0.0598081 0.137039 3.13924 -0.405184 -15.2972 24.234 0.0496219 0.113701 0.709546 -25.4761 -4.50147 -1.23299 -7.60729 7.53365 1.51724 3.7659 2.05234 -12.9547 3.2495 -3.26872 74.9948 17.7149 8.678 -29.2081 0.0598081 0.137039 -2.79979 -0.31941 13.6106 -24.234 0.0496218 0.113702 0.388771 -12.5284 4.62955 9.23673 -4.20556 2.0327 -0.110392 -18.5869 -10.6632 -0.852353 -38.7721 -0.655187 -7.16928 25.32 1.16191 -2.32622 -40.4017 -6.04875 -0.572205 -2.43497 15.4372 0.779096 -9.8844 12.4959 1.79286e-16 -7.92845e-16 1.01305e-17 -9.23673 -4.20556 2.0327 -5.76813 -3.68198 12.6497 0.852353 -38.7721 -0.655187 4.8844 17.8088 -0.452004 2.32622 -40.4017 -6.04875 -1.7399 -10.5997 -15.9108 -0.779096 -9.8844 12.4959 -5.96354e-16 -5.59082e-16 -1.27471e-14 
-5.65509 91.1899 59.9516 2.34574 -0.953563 5.31716 0 5.07867 -1.15138 -1.25961 4.31896 0.133917 0 5.61661 1.07143 -0.870012 3.69423 -0.0364193 -1.02604e-17 5.98978 0.11501 -0.558342 3.51016 0.0630895 -1.10457e-17 6.50583 -0.443523 -0.246269 3.04282 0.0934693 -1.97295e-17 7.60548 -1.50593 0.122538 2.16526 0.0849854 -2.53307e-17 9.49737 -0.914492 0.528559 1.81926 -0.265402 -2.90401e-17 10.5513 1.57691 0.00011997 0.794385 0.0787293 -1.29193e-17 4.78644 0.715339 0.476315 6.47358 -1.04872 -1.8116e-17 4.82109 0.421791 0.923357 0.0224545 -0.596758 -2.00958e-17 4.83041 0.765062 -2.17946 0.444017 1.54241 1.23299 -7.60731 7.53374 0.784452 2.91937 -1.55689 12.9547 3.2495 -3.26872 -78.5237 25.6084 -12.8329 29.2081 0.0598081 0.137039 3.18442 -0.417387 -15.5225 24.234 0.0496219 0.113701 0.98657 -24.8666 -4.19009 -1.23299 -7.60729 7.53365 1.74824 3.70323 2.22783 -12.9547 3.2495 -3.26872 74.4324 17.5284 9.54577 -29.2081 0.0598081 0.137039 -2.82464 -0.325319 13.7336 -24.234 0.0496218 0.113702 0.291588 -12.9953 4.29916 9.23673 -4.20556 2.0327 -0.230617 -19.0087 -10.944 -0.852353 -38.7721 -0.655187 -7.41758 26.0895 1.25609 -2.32622 -40.4017 -6.04875 -0.416555 -3.12811 15.5015 0.779096 -9.8844 12.4959 1.24712e-15 -7.47394e-16 -3.5321e-17 -9.23673 -4.20556 2.0327 -5.99305 -3.85805 13.519 0.852353 -38.7721 -0.655187 5.19492 18.8721 -0.531113 2.32622 -40.4017 -6.04875 -1.72189 -11.1611 -15.9749 -0.779096 -9.8844 12.4959 -5.96354e-16 -5.59082e-16 -1.27471e-14 
-5.86234 91.0919 60.0258 2.88643 -1.31643 5.27051 0 5.07867 -1.15138 -1.43693 4.32115 0.225262 0 5.61661 1.07143 -1.02434 3.73252 0.0334161 -1.02604e-17 5.98978 0.11501 -0.67947 3.60939 0.13362 -1.10457e-17 6.50583 -0.443523 -0.333861 3.23011 0.166139 -1.97295e-17 7.60548 -1.50593 0.0882877 2.39611 0.173895 -2.53307e-17 9.49737 -0.914492 0.564592 2.10029 -0.184532 -2.90401e-17 10.5513 1.57691 0.00524346 0.775593 0.0822997 -1.29193e-17 4.78644 0.715339 0.469253 6.62616 -1.43601 -1.8116e-17 4.82109 0.421791 1.1658 0.132571 -0.776923 -2.00958e-17 4.83041 0.765062 -1.84271 0.604626 1.335 1.23299 -7.60731 7.53374 0.892952 2.76954 -1.51933 12.9547 3.2495 -3.26872 -78.3951 25.7503 -13.4412 29.2081 0.0598081 0.137039 3.21607 -0.426049 -15.6805 24.234 0.0496219 0.113701 1.14754 -24.4487 -3.99924 -1.23299 -7.60729 7.53365 1.96278 3.58388 2.38317 -12.9547 3.2495 -3.26872 74.021 16.9422 10.3518 -29.2081 0.0598081 0.137039 -2.80158 -0.319832 13.6194 -24.234 0.0496218 0.113702 0.0808505 -12.7649 3.81728 9.23673 -4.20556 2.0327 -0.439086 -19.3862 -11.3216 -0.852353 -38.7721 -0.655187 -7.49736 26.3347 1.28703 -2.32622 -40.4017 -6.04875 0.0235898 -4.36601 15.5643 0.779096 -9.8844 12.4959 -8.916e-19 -7.95943e-16 1.32284e-17 -9.23673 -4.20556 2.0327 -6.37704 -3.76124 14.3346 0.852353 -38.7721 -0.655187 5.42368 19.6474 -0.593002 2.32622 -40.4017 -6.04875 -1.76556 -11.6874 -16.0214 -0.779096 -9.8844 12.4959 -5.96354e-16 -5.59082e-16 -1.27471e-14 
-5.9708 90.9925 60.1679 3.35951 -1.60315 5.24739 0 5.07867 -1.15138 -1.5781 4.27967 0.319906 0 5.61661 1.07143 -1.14816 3.74411 0.110542 -1.02604e-17 5.98978 0.11501 -0.778153 3.69431 0.210437 -1.10457e-17 6.50583 -0.443523 -0.407 3.42027 0.24403 -1.97295e-17 7.60548 -1.50593 0.0610915 2.63531 0.265909 -2.53307e-17 9.49737 -0.914492 0.601776 2.39115 -0.0984671 -2.90401e-17 10.5513 1.57691 0.0145749 0.756236 0.084201 -1.29193e-17 4.78644 0.715339 0.477393 6.98843 -1.7854 -1.8116e-17 4.82109 0.421791 1.36552 0.230473 -0.938518 -2.00958e-17 4.83041 0.765062 -1.67485 0.697489 1.04944 1.23299 -7.60731 7.53374 1.04144 2.55467 -1.46048 12.9547 3.2495 -3.26872 -78.4106 25.9103 -13.9476 29.2081 0.0598081 0.137039 3.24487 -0.434011 -15.8243 24.234 0.0496219 0.113701 1.17346 -24.3763 -4.06466 -1.23299 -7.60729 7.53365 2.01026 3.40291 2.48342 -12.9547 3.2495 -3.26872 73.8028 16.0615 11.1142 -29.2081 0.0598081 0.137039 -2.7238 -0.301689 13.2349 -24.234 0.0496218 0.113702 -0.259462 -11.8245 3.37383 9.23673 -4.20556 2.0327 -0.56222 -19.6099 -11.5291 -0.852353 -38.7721 -0.655187 -7.27439 25.647 1.20139 -2.32622 -40.4017 -6.04875 0.194395 -4.96933 15.59 0.779096 -9.8844 12.4959 -3.32199e-16 -8.06296e-16 2.35818e-17 -9.23673 -4.20556 2.0327 -6.7587 -3.53177 14.8784 0.852353 -38.7721 -0.655187 5.57132 20.1441 -0.634549 2.32622 -40.4017 -6.04875 -1.89075 -12.178 -16.0483 -0.779096 -9.8844 12.4959 -5.96354e-16 -5.59082e-16 -1.27471e-14 
-6.03059 90.9008 60.2956 3.6455 -1.80519 5.30295 0 5.07867 -1.15138 -1.64225 4.25842 0.396691 0 5.61661 1.07143 -1.20625 3.76969 0.1776 -1.02604e-17 5.98978 0.11501 -0.827517 3.78039 0.275848 -1.10457e-17 6.50583 -0.443523 -0.44698 3.59315 0.309468 -1.97295e-17 7.60548 -1.50593 0.0473984 2.84109 0.339563 -2.53307e-17 9.49737 -0.914492 0.629348 2.63678 -0.0264766 -2.90401e-17 10.5513 1.57691 0.0252502 0.740719 0.0844783 -1.29193e-17 4.78644 0.715339 0.494784 7.44841 -2.07754 -1.8116e-17 4.82109 0.421791 1.48004 0.320095 -1.07253 -2.00958e-17 4.83041 0.765062 -1.64135 0.72107 0.74378 1.23299 -7.60731 7.53374 1.15747 2.32989 -1.44944 12.9547 3.2495 -3.26872 -78.5201 25.9512 -14.3973 29.2081 0.0598081 0.137039 3.28039 -0.443938 -16.0018 24.234 0.0496219 0.113701 1.24166 -24.0226 -4.17763 -1.23299 -7.60729 7.53365 1.89545 3.21083 2.56516 -12.9547 3.2495 -3.26872 73.7249 15.0408 11.8511 -29.2081 0.0598081 0.137039 -2.61098 -0.276345 12.678 -24.234 0.0496218 0.113702 -0.655547 -10.4897 3.0769 9.23673 -4.20556 2.0327 -0.506731 -19.6643 -11.6593 -0.852353 -38.7721 -0.655187 -6.83587 24.2716 1.04047 -2.32622 -40.4017 -6.04875 -0.0618082 -4.79972 15.5847 0.779096 -9.8844 12.4959 -8.19388e-17 -7.98476e-16 1.57611e-17 -9.23673 -4.20556 2.0327 -6.98758 -3.31378 15.2395 0.852353 -38.7721 -0.655187 5.67005 20.4746 -0.663033 2.32622 -40.4017 -6.04875 -2.05724 -12.5355 -16.0555 -0.779096 -9.8844 12.4959 -3.05572e-16 -5.77256e-16 -1.27562e-14 
